<?xml version="1.0" standalone="no"?>
<!DOCTYPE svg PUBLIC "-//W3C//DTD SVG 20010904//EN"
 "http://www.w3.org/TR/2001/REC-SVG-20010904/DTD/svg10.dtd">
<svg version="1.0" xmlns="http://www.w3.org/2000/svg"
 width="850.000000pt" height="567.000000pt" viewBox="0 0 850.000000 567.000000"
 preserveAspectRatio="xMidYMid meet">

<g transform="translate(0.000000,567.000000) scale(0.100000,-0.100000)"
fill="#000000" stroke="none">
<path d="M4840 3434 c-25 -13 -57 -38 -72 -54 -35 -38 -48 -38 -48 0 l0 30
-140 0 c-112 0 -140 -3 -140 -14 0 -7 -3 -28 -6 -45 l-6 -31 44 6 45 6 6 -43
c3 -24 3 -97 0 -161 l-6 -118 56 0 57 0 0 160 0 160 45 0 c25 0 45 -3 45 -7 0
-5 -7 -30 -15 -57 -17 -56 -12 -99 18 -164 37 -81 148 -152 238 -152 87 0 178
55 227 138 23 40 27 58 27 122 0 64 -5 83 -28 122 -27 47 -81 95 -130 116 -15
7 -60 12 -100 11 -56 0 -82 -6 -117 -25z m175 5 c87 -23 165 -107 165 -179 0
-33 -12 -33 -23 0 -2 8 -3 3 -1 -12 2 -15 -1 -30 -6 -33 -6 -3 -10 -15 -10
-26 0 -10 -5 -19 -11 -19 -6 0 -9 6 -6 13 3 9 -6 13 -34 12 -29 -1 -44 -7 -55
-24 -14 -19 -14 -25 -3 -32 11 -7 10 -9 -5 -9 -10 0 -45 17 -77 39 -56 38 -58
38 -75 20 -22 -24 -29 -18 -14 11 10 19 8 26 -16 51 -16 16 -34 27 -40 25 -7
-3 -11 5 -10 18 0 13 6 22 12 19 16 -6 45 32 38 51 -7 18 -20 21 -29 6 -3 -5
-12 -10 -18 -10 -19 0 66 69 86 70 9 0 17 3 17 8 0 11 71 12 115 1z"/>
<path d="M4988 3413 c7 -3 16 -2 19 1 4 3 -2 6 -13 5 -11 0 -14 -3 -6 -6z"/>
<path d="M4910 3406 c0 -10 28 -13 41 -5 10 6 7 9 -13 9 -16 0 -28 -2 -28 -4z"/>
<path d="M4870 3391 c0 -12 28 -22 35 -12 3 5 -2 12 -11 15 -21 8 -24 8 -24
-3z"/>
<path d="M5025 3390 c3 -5 10 -10 16 -10 5 0 9 5 9 10 0 6 -7 10 -16 10 -8 0
-12 -4 -9 -10z"/>
<path d="M4975 3365 c21 -17 37 -15 43 3 2 8 -8 12 -30 12 -31 -1 -32 -1 -13
-15z"/>
<path d="M5065 3370 c3 -5 11 -10 16 -10 6 0 7 5 4 10 -3 6 -11 10 -16 10 -6
0 -7 -4 -4 -10z"/>
<path d="M4923 3353 c-19 -7 -16 -21 8 -33 15 -9 24 -8 35 1 12 10 12 13 -3
25 -19 14 -22 15 -40 7z"/>
<path d="M5025 3341 c-6 -11 33 -36 42 -27 3 3 3 12 0 21 -7 17 -33 20 -42 6z"/>
<path d="M5105 3340 c3 -5 8 -10 11 -10 2 0 4 5 4 10 0 6 -5 10 -11 10 -5 0
-7 -4 -4 -10z"/>
<path d="M4990 3310 c0 -5 5 -10 11 -10 8 0 9 -4 0 -13 -8 -11 -5 -16 15 -25
33 -16 34 -15 34 8 0 11 -6 20 -14 20 -8 0 -16 7 -20 15 -6 17 -26 21 -26 5z"/>
<path d="M5090 3304 c0 -11 9 -25 20 -32 16 -10 20 -10 20 1 0 8 -9 22 -20 32
-19 18 -20 17 -20 -1z"/>
<path d="M4836 3302 c-3 -5 8 -21 23 -36 34 -33 51 -19 24 19 -18 25 -38 32
-47 17z"/>
<path d="M5076 3253 c-13 -13 -5 -21 19 -19 14 0 25 2 25 3 0 7 -38 21 -44 16z"/>
<path d="M4914 3239 c-8 -13 -1 -21 49 -56 l44 -32 10 22 c9 20 5 24 -44 48
-30 14 -56 22 -59 18z"/>
<path d="M3126 3412 c-6 -10 -146 -392 -146 -398 0 -2 24 -4 53 -4 49 0 53 2
64 30 12 31 12 31 80 28 63 -3 69 -5 81 -30 12 -26 18 -28 67 -28 l55 0 -27
73 c-15 39 -50 131 -78 202 l-51 130 -46 3 c-25 2 -49 -1 -52 -6z m72 -181
c19 -63 17 -71 -24 -71 -34 0 -36 2 -31 28 9 42 26 82 35 82 5 0 14 -17 20
-39z"/>
<path d="M3543 3410 c-65 -20 -133 -127 -133 -208 0 -38 40 -131 66 -154 58
-51 155 -62 225 -25 52 28 58 46 29 88 -21 28 -23 29 -41 13 -10 -9 -38 -19
-63 -21 -40 -5 -48 -2 -76 25 -26 26 -30 38 -30 82 0 44 4 56 30 82 28 27 36
30 76 25 25 -2 53 -12 63 -21 18 -16 20 -16 40 12 29 41 26 57 -14 82 -40 25
-124 34 -172 20z"/>
<path d="M4272 3399 c-82 -41 -93 -109 -32 -190 22 -30 40 -58 40 -64 0 -14
-42 -55 -56 -55 -30 -1 -35 -17 -17 -54 16 -35 20 -37 53 -32 64 10 121 70
123 129 1 26 -9 51 -36 90 -51 73 -47 117 10 117 27 0 27 0 6 45 -19 41 -32
43 -91 14z"/>
<path d="M5268 3412 c-27 -2 -48 -5 -48 -8 0 -3 9 -22 20 -44 28 -55 28 -166
-1 -221 -13 -27 -19 -55 -17 -82 l3 -42 53 -3 52 -3 0 105 c0 59 4 106 9 106
5 0 44 -47 87 -105 l78 -105 48 0 48 0 0 163 c0 89 3 179 6 200 l7 37 -57 0
-56 0 0 -110 c0 -60 -4 -110 -8 -110 -4 0 -43 48 -87 108 -43 59 -81 109 -84
112 -3 3 -27 4 -53 2z m91 -123 c17 -6 36 -20 42 -30 13 -25 7 -24 -38 7 -57
39 -58 42 -4 23z"/>
<path d="M2288 3218 c-2 -106 0 -197 4 -202 4 -6 58 -10 120 -10 89 0 120 4
146 18 60 31 79 129 36 178 -17 18 -17 20 -1 47 21 37 22 80 1 110 -28 39 -73
51 -193 51 l-109 0 -4 -192z m187 112 c21 -8 26 -16 23 -38 -3 -25 -6 -27 -53
-27 -48 0 -50 1 -53 29 -5 43 27 57 83 36z m9 -160 c18 -6 26 -17 26 -34 0
-34 -22 -48 -72 -44 -39 3 -43 6 -46 31 -6 51 32 70 92 47z"/>
<path d="M2677 3403 c-2 -4 -2 -95 1 -200 l4 -193 134 0 c121 0 134 2 134 18
0 9 3 27 6 40 6 22 5 22 -85 22 l-92 0 2 158 1 157 -50 3 c-28 2 -52 -1 -55
-5z"/>
<path d="M3803 3210 l0 -200 53 0 53 0 3 73 c3 64 5 72 23 75 16 2 29 -13 61
-70 l41 -73 57 -3 c31 -2 56 1 56 5 0 5 -22 48 -50 96 -53 92 -59 112 -36 120
18 7 76 124 76 154 0 22 -3 24 -47 21 l-47 -3 -23 -59 c-28 -73 -48 -96 -85
-96 l-28 0 0 80 0 80 -53 0 -54 0 0 -200z"/>
<path d="M5679 3408 c0 -2 -1 -91 -2 -198 l-2 -195 134 -3 c147 -3 151 -2 151
55 l0 32 -68 -6 c-84 -7 -115 6 -110 45 3 26 5 27 81 30 l77 3 0 44 0 44 -77
3 -78 3 0 30 0 30 83 -3 83 -2 -3 42 -3 43 -132 3 c-73 1 -133 1 -134 0z"/>
<path d="M2297 2913 c-4 -3 -7 -87 -7 -185 l0 -178 1835 0 1835 0 -2 183 -3
182 -1826 3 c-1004 1 -1829 -1 -1832 -5z m153 -183 l0 -130 -30 0 -30 0 0 130
0 130 30 0 30 0 0 -130z m316 73 l19 -58 5 55 c4 48 8 55 28 58 22 3 22 3 22
-128 l0 -131 -27 3 c-24 2 -30 10 -38 45 -15 61 -25 63 -25 4 0 -51 -1 -52
-27 -49 l-28 3 -3 114 c-1 63 0 121 2 128 3 7 16 13 29 13 21 0 27 -9 43 -57z
m424 32 c0 -18 -5 -25 -20 -25 -15 0 -20 -7 -20 -26 0 -17 6 -28 20 -31 11 -3
20 -14 20 -24 0 -12 -7 -19 -20 -19 -18 0 -20 -7 -20 -55 l0 -55 -35 0 -35 0
0 130 0 130 55 0 c52 0 55 -1 55 -25z m366 11 c17 -13 19 -27 19 -116 0 -115
-9 -130 -75 -130 -66 0 -75 15 -75 130 0 115 9 130 75 130 20 0 45 -6 56 -14z
m348 -2 c3 -9 6 -29 6 -44 0 -50 17 -42 24 11 l7 50 42 -3 42 -3 0 -125 0
-125 -27 -3 -28 -3 -1 78 c0 82 -17 78 -18 -4 -1 -54 -9 -73 -31 -73 -18 0
-30 41 -30 108 0 17 -4 32 -10 32 -6 0 -10 -30 -10 -70 0 -68 -1 -70 -25 -70
l-25 0 0 130 0 130 39 0 c26 0 41 -5 45 -16z m481 -31 c3 -27 10 -70 16 -96 5
-26 9 -64 9 -82 0 -32 -2 -35 -30 -35 -25 0 -30 4 -30 25 0 32 -27 34 -32 3
-2 -18 -11 -24 -37 -26 -31 -3 -33 -1 -28 20 3 13 11 71 18 131 l13 107 47 0
48 0 6 -47z m375 22 c0 -18 -5 -25 -20 -25 -19 0 -20 -7 -20 -106 l0 -105 -32
3 -33 3 -3 101 c-2 92 -5 102 -22 107 -12 3 -20 14 -20 26 0 19 6 21 75 21 73
0 75 -1 75 -25z m290 -105 l0 -130 -30 0 -30 0 0 130 0 130 30 0 30 0 0 -130z
m381 109 c14 -14 19 -30 17 -52 -2 -26 -8 -33 -30 -35 -24 -3 -27 1 -30 30 -2
21 -8 33 -18 33 -12 0 -16 -17 -18 -79 -2 -45 2 -84 7 -89 14 -14 24 -3 26 26
1 17 9 23 33 25 30 3 32 1 32 -27 0 -45 -31 -71 -84 -71 -64 0 -76 21 -76 132
0 75 3 91 20 108 27 27 93 27 121 -1z m381 4 c29 -26 23 -53 -12 -53 -20 0
-30 5 -30 15 0 8 -7 15 -15 15 -27 0 -16 -38 18 -61 47 -34 56 -49 57 -96 0
-50 -17 -63 -79 -63 -44 0 -71 26 -71 67 0 19 5 23 30 23 25 0 30 -4 30 -25 0
-16 6 -25 15 -25 29 0 17 47 -17 71 -18 12 -39 29 -45 37 -18 22 -16 77 3 96
21 21 92 21 116 -1z"/>
<path d="M3490 2730 c0 -53 4 -90 10 -90 6 0 10 37 10 90 0 53 -4 90 -10 90
-6 0 -10 -37 -10 -90z"/>
<path d="M4327 2731 c-4 -19 -5 -36 -2 -39 10 -11 16 7 13 40 l-3 33 -8 -34z"/>
</g>
</svg>
