<?xml version="1.0" standalone="no"?>
<!DOCTYPE svg PUBLIC "-//W3C//DTD SVG 20010904//EN"
 "http://www.w3.org/TR/2001/REC-SVG-20010904/DTD/svg10.dtd">
<svg version="1.0" xmlns="http://www.w3.org/2000/svg"
 width="8652.000000pt" height="5469.000000pt" viewBox="0 0 8652.000000 5469.000000"
 preserveAspectRatio="xMidYMid meet">
<metadata>
Created by potrace 1.16, written by Peter Selinger 2001-2019
</metadata>
<g transform="translate(0.000000,5469.000000) scale(0.100000,-0.100000)"
fill="#ffffff" stroke="none">
<path d="M42160 54683 c-882 -31 -1482 -74 -2250 -159 -5665 -630 -10989
-3041 -15220 -6893 -876 -798 -1744 -1700 -2501 -2601 -1705 -2031 -3098
-4289 -4135 -6708 -307 -715 -625 -1560 -849 -2257 -47 -148 -95 -296 -105
-327 l-19 -58 773 0 772 0 33 103 c178 546 481 1345 744 1957 359 837 830
1785 1274 2564 1338 2343 3027 4448 5038 6276 1298 1179 2771 2260 4292 3148
4210 2457 8981 3653 13888 3481 2954 -103 5868 -713 8592 -1798 4125 -1644
7749 -4326 10529 -7796 1562 -1949 2834 -4127 3753 -6427 177 -444 390 -1024
518 -1413 l30 -90 772 -3 c617 -2 772 0 769 10 -3 7 -40 123 -83 258 -625
1977 -1569 4032 -2683 5840 -947 1538 -1988 2906 -3241 4260 -267 289 -981
1008 -1266 1275 -2507 2350 -5365 4174 -8520 5437 -2910 1164 -5963 1803
-9175 1918 -238 8 -1516 11 -1730 3z" fill="#fff"/>
<path d="M42460 47324 c-519 -18 -875 -39 -1275 -74 -5573 -495 -10669 -3334
-14042 -7825 -732 -975 -1411 -2085 -1931 -3155 -108 -222 -272 -575 -272
-585 0 -3 364 -5 810 -5 l810 0 96 193 c645 1288 1534 2604 2529 3742 351 401
961 1030 1335 1375 1661 1533 3567 2738 5645 3568 1747 698 3617 1125 5500
1257 802 56 1678 59 2465 10 4839 -305 9336 -2496 12545 -6115 1044 -1178
1987 -2570 2656 -3922 l54 -108 807 0 c490 0 808 4 808 9 0 36 -441 934 -631
1286 -1416 2622 -3429 4907 -5862 6653 -2709 1945 -5856 3167 -9167 3561 -446
53 -960 96 -1470 121 -202 11 -1226 20 -1410 14z" fill="#fff"/>
<path d="M72939 34475 c-254 -51 -474 -263 -533 -515 -9 -36 -16 -108 -16
-161 0 -320 198 -580 515 -676 57 -17 285 -18 5401 -23 l5342 -5 -5275 -5695
c-2901 -3132 -5320 -5744 -5375 -5805 -78 -86 -109 -130 -143 -200 -187 -381
-4 -820 400 -962 l80 -28 6320 0 6320 0 86 31 c203 72 358 229 431 434 20 57
23 84 23 220 0 149 -2 158 -31 235 -81 212 -234 357 -454 431 -53 18 -224 19
-5515 24 l-5459 5 5279 5700 c2903 3135 5323 5746 5377 5803 163 172 225 327
215 542 -8 190 -82 350 -222 478 -85 78 -217 145 -327 167 -69 13 -748 15
-6225 14 -5041 -1 -6160 -3 -6214 -14z" fill="#fff"/>
<path d="M590 34459 c-147 -19 -280 -87 -390 -198 -85 -86 -130 -156 -167
-263 -38 -107 -44 -291 -14 -403 30 -110 82 -203 159 -286 94 -102 195 -165
327 -205 58 -18 238 -19 4560 -24 4254 -5 4506 -6 4605 -23 280 -48 509 -120
745 -237 275 -136 479 -285 700 -511 207 -212 339 -401 466 -664 113 -235 185
-462 225 -709 25 -157 30 -502 10 -666 -128 -1047 -886 -1905 -1907 -2159
-284 -71 177 -64 -4824 -70 -4257 -6 -4513 -7 -4570 -24 -120 -35 -224 -96
-310 -182 -143 -143 -196 -264 -203 -466 -4 -107 -1 -137 17 -204 31 -111 85
-208 161 -288 95 -102 194 -164 325 -203 58 -18 238 -19 4560 -24 4254 -5
4506 -6 4605 -23 441 -75 820 -235 1159 -490 120 -91 339 -302 435 -421 167
-205 331 -494 421 -741 44 -119 98 -332 121 -470 25 -156 30 -501 10 -665
-128 -1048 -885 -1905 -1907 -2159 -284 -71 177 -64 -4824 -70 -4256 -6 -4513
-7 -4570 -24 -120 -35 -224 -96 -310 -182 -143 -143 -196 -264 -203 -466 -4
-107 -1 -137 17 -204 31 -111 83 -205 163 -290 106 -114 223 -179 373 -209 73
-15 476 -16 4570 -13 4908 3 4534 -1 4865 57 1599 283 2869 1544 3164 3143 46
249 60 411 60 707 0 295 -13 444 -60 703 -177 979 -740 1869 -1556 2461 l-67
49 107 80 c801 600 1337 1460 1516 2430 46 247 60 411 60 707 0 295 -13 443
-60 703 -214 1183 -990 2225 -2064 2771 -449 228 -843 347 -1374 413 -120 15
-523 17 -4596 19 -2456 1 -4494 -2 -4530 -7z" fill="#fff"/>
<path d="M15234 34460 c-80 -11 -191 -50 -262 -92 -128 -75 -253 -232 -303
-378 -30 -90 -37 -277 -15 -375 55 -236 249 -438 491 -511 58 -18 245 -19
4560 -24 4254 -5 4506 -6 4605 -23 466 -79 873 -258 1216 -535 515 -415 843
-1001 930 -1662 22 -168 14 -544 -14 -705 -95 -535 -334 -998 -712 -1376 -401
-401 -918 -655 -1480 -724 -110 -13 -630 -15 -4531 -15 -3092 0 -4431 -3
-4485 -11 -157 -22 -277 -82 -394 -199 -136 -137 -190 -260 -197 -455 -6 -146
10 -223 69 -345 79 -160 249 -301 433 -356 58 -18 236 -19 4330 -24 l4270 -5
135 -48 c251 -90 414 -158 635 -267 387 -190 659 -377 919 -630 323 -315 555
-666 762 -1150 l55 -132 -3 -1771 -3 -1772 27 -73 c40 -110 84 -178 173 -267
134 -135 288 -196 489 -196 193 1 337 61 477 201 69 68 94 101 127 170 82 167
74 -15 85 2057 9 1693 8 1858 -7 1924 -9 39 -50 158 -93 263 -218 546 -451
956 -769 1356 -111 140 -477 514 -719 734 -71 66 -131 122 -132 125 -2 3 21
19 50 35 224 126 523 361 757 596 384 383 669 812 868 1305 131 326 212 647
259 1025 13 109 17 217 17 430 0 305 -12 448 -60 710 -201 1097 -877 2066
-1849 2647 -404 242 -873 415 -1334 493 -342 58 19 54 -4851 56 -2456 1 -4493
-2 -4526 -6z" fill="#fff"/>
<path d="M33200 34433 c-897 -67 -1781 -426 -2475 -1004 -136 -113 -397 -370
-512 -503 -631 -733 -995 -1615 -1063 -2576 -6 -95 -10 -1723 -10 -4703 0
-5111 -8 -4634 77 -4807 38 -77 61 -109 127 -176 144 -143 319 -211 521 -201
310 16 550 210 642 522 17 57 18 292 23 4725 l5 4665 22 127 c80 459 228 841
469 1203 464 700 1204 1181 2021 1314 254 42 312 42 2723 39 2536 -4 2350 0
2650 -62 881 -182 1657 -777 2069 -1586 185 -361 289 -737 321 -1151 6 -89 10
-1664 10 -4665 0 -4492 0 -4531 20 -4610 58 -230 231 -416 456 -490 79 -26
103 -29 214 -29 111 0 135 3 214 29 207 68 370 231 448 446 l23 65 3 4615 c2
3302 0 4656 -8 4760 -103 1353 -817 2574 -1945 3325 -619 412 -1286 650 -2019
720 -138 13 -484 15 -2570 13 -1326 -1 -2431 -3 -2456 -5z" fill="#fff"/>
<path d="M44355 34356 c-86 -17 -145 -38 -205 -73 -172 -100 -290 -256 -343
-454 l-22 -84 0 -6550 c0 -5423 2 -6561 13 -6615 56 -271 255 -487 512 -555
86 -23 244 -24 330 -2 241 63 431 251 507 502 17 57 18 298 23 5716 l5 5656
1655 -1805 c910 -992 1685 -1832 1722 -1867 206 -191 516 -231 771 -98 103 54
229 182 284 288 50 97 69 161 83 271 19 154 -18 327 -99 464 -29 49 -639 713
-2311 2516 -1249 1347 -2302 2479 -2340 2515 -154 147 -381 215 -585 175z" fill="#fff"/>
<path d="M55935 34363 c-274 -38 -497 -237 -583 -522 -16 -52 -17 -421 -22
-5652 l-5 -5597 -1625 1940 c-894 1067 -1646 1959 -1671 1982 -63 56 -143 102
-231 133 -98 35 -253 43 -362 18 -222 -49 -415 -221 -495 -442 -88 -239 -52
-502 96 -700 87 -117 4505 -5323 4549 -5361 61 -52 189 -117 274 -139 86 -22
244 -21 330 2 239 63 430 257 503 512 l22 78 3 6495 c2 4337 -1 6529 -8 6598
-23 232 -135 427 -316 547 -130 87 -309 129 -459 108z" fill="#fff"/>
<path d="M58845 34291 c-106 -30 -184 -79 -277 -172 -72 -72 -94 -101 -132
-180 -63 -130 -80 -206 -80 -359 0 -233 76 -418 233 -563 71 -65 127 -100 220
-136 l66 -26 4230 -5 4230 -5 140 -23 c300 -49 524 -120 790 -252 298 -147
500 -294 751 -544 512 -511 808 -1123 931 -1921 16 -101 17 -321 21 -2625 2
-1817 0 -2554 -8 -2655 -49 -609 -265 -1202 -612 -1688 -419 -585 -1018 -997
-1662 -1142 -290 -65 113 -59 -4561 -65 l-4240 -5 -58 -22 c-212 -81 -362
-235 -431 -444 -87 -260 -44 -529 118 -745 75 -101 193 -185 316 -227 l65 -22
4145 -3 c2868 -2 4196 0 4310 8 369 24 712 95 1050 217 839 304 1582 909 2102
1713 372 575 614 1216 728 1930 57 359 54 208 58 2930 4 2607 2 2712 -39 3042
-125 1015 -554 1958 -1223 2690 -598 655 -1383 1102 -2211 1257 -315 60 79 55
-4620 57 -4044 3 -4293 2 -4350 -15z" fill="#fff"/>
<path d="M17100 18953 c10 -32 58 -179 105 -328 224 -697 542 -1542 849 -2257
1513 -3528 3782 -6711 6636 -9309 4232 -3853 9550 -6261 15220 -6893 608 -68
1129 -109 1870 -147 327 -17 1679 -23 2072 -10 3961 135 7698 1072 11193 2806
2399 1191 4562 2695 6540 4550 473 443 1214 1206 1671 1720 2027 2277 3651
4878 4805 7691 254 619 524 1363 714 1964 43 135 80 251 83 258 3 10 -152 12
-769 10 l-772 -3 -30 -90 c-128 -389 -341 -969 -518 -1413 -1587 -3970 -4196
-7519 -7534 -10247 -3977 -3251 -8797 -5221 -13910 -5684 -1686 -153 -3390
-142 -5070 34 -6724 705 -12875 4028 -17171 9275 -884 1081 -1704 2274 -2407
3506 -444 779 -915 1727 -1274 2564 -263 612 -566 1411 -744 1958 l-33 102
-772 0 -773 0 19 -57z" fill="#fff"/>
<path d="M24940 19005 c0 -27 346 -744 510 -1055 1653 -3150 4085 -5761 7115
-7642 2445 -1517 5260 -2493 8125 -2817 822 -93 1409 -125 2285 -125 749 0
1148 17 1835 80 3489 316 6842 1566 9697 3616 2433 1746 4446 4031 5862 6653
190 352 631 1250 631 1286 0 5 -318 9 -808 9 l-807 0 -54 -107 c-245 -496
-623 -1160 -949 -1668 -2781 -4333 -7272 -7299 -12337 -8149 -1113 -187 -2152
-267 -3285 -253 -603 8 -994 27 -1525 78 -4011 378 -7743 2046 -10715 4789
-374 345 -984 974 -1335 1375 -995 1138 -1884 2454 -2529 3743 l-96 192 -810
0 c-446 0 -810 -2 -810 -5z" fill="#fff"/>
</g>
</svg>
