<?xml version="1.0" standalone="no"?>
<!DOCTYPE svg PUBLIC "-//W3C//DTD SVG 20010904//EN"
 "http://www.w3.org/TR/2001/REC-SVG-20010904/DTD/svg10.dtd">
<svg version="1.0" xmlns="http://www.w3.org/2000/svg"
 width="735.000000pt" height="276.000000pt" viewBox="0 0 735.000000 276.000000"
 preserveAspectRatio="xMidYMid meet">
<metadata>
Created by potrace 1.16, written by Peter Selinger 2001-2019
</metadata>
<g transform="translate(0.000000,276.000000) scale(0.100000,-0.100000)"
fill="#ffffff" stroke="none">
<path d="M500 2739 c-146 -37 -236 -86 -320 -171 -119 -121 -175 -262 -173
-438 1 -174 53 -298 175 -422 43 -43 84 -78 92 -78 8 0 16 -4 18 -8 5 -13 114
-62 173 -77 42 -11 119 -15 309 -15 265 0 293 -4 342 -47 40 -35 57 -72 57
-126 0 -64 -21 -107 -70 -144 l-36 -28 -531 -5 -531 -5 3 -40 c4 -56 19 -101
55 -165 32 -58 130 -160 153 -160 8 0 14 -4 14 -8 0 -5 28 -18 62 -30 60 -21
79 -22 441 -23 363 0 381 1 450 22 40 12 83 30 97 39 14 8 38 22 55 30 49 25
168 151 202 215 56 107 73 176 73 300 0 86 -5 126 -21 176 -50 156 -168 297
-299 360 -139 67 -214 79 -506 79 -223 0 -232 1 -264 23 -107 71 -99 236 13
296 36 20 56 21 291 21 281 0 331 8 426 73 111 76 199 225 200 340 l0 27 -457
-1 c-252 0 -474 -5 -493 -10z" fill="#fff"/>
<path d="M1810 2723 c0 -45 25 -127 56 -184 53 -97 139 -169 250 -208 55 -19
81 -21 306 -21 157 0 257 -4 279 -11 85 -29 133 -121 109 -209 -11 -41 -57
-100 -79 -100 -6 0 -11 -4 -11 -10 0 -7 -158 -10 -455 -10 l-456 0 3 -437 c3
-399 5 -442 22 -488 62 -166 225 -295 372 -295 l44 0 2 388 3 387 260 6 c310
7 334 12 470 103 168 112 269 297 269 496 1 113 -14 179 -62 280 -46 99 -167
222 -262 267 -150 72 -155 72 -667 73 l-453 0 0 -27z" fill="#fff"/>
<path d="M5899 2735 c-102 -28 -202 -97 -258 -178 -32 -47 -67 -141 -75 -204
l-6 -43 333 0 334 0 6 -262 c4 -145 7 -496 7 -780 l0 -518 49 0 c28 0 53 5 56
10 3 6 14 10 25 10 10 0 38 10 61 23 108 56 188 153 228 278 6 21 11 111 11
225 0 104 3 375 7 602 l6 412 147 0 c122 0 157 4 210 21 147 48 261 170 296
317 7 32 13 67 14 80 l0 22 -702 -1 c-536 -1 -714 -4 -749 -14z" fill="#fff"/>
<path d="M4290 2714 c-155 -23 -189 -34 -324 -99 -147 -72 -289 -197 -387
-342 -122 -181 -184 -421 -160 -623 22 -182 67 -311 159 -455 61 -95 253 -284
290 -285 6 0 12 -3 12 -7 0 -5 10 -13 23 -19 107 -54 137 -67 200 -87 40 -13
93 -29 120 -35 55 -14 341 -16 383 -3 16 5 55 15 87 22 32 7 60 16 63 21 3 4
12 8 20 8 25 0 144 60 224 114 94 62 202 170 631 631 31 33 79 85 108 115 28
30 51 58 51 63 0 4 -10 18 -22 31 -13 13 -66 69 -118 126 -52 57 -120 129
-150 160 -30 32 -95 101 -145 155 -99 108 -244 256 -290 295 -76 65 -270 170
-313 170 -12 0 -23 4 -26 9 -6 10 -27 14 -191 35 -127 17 -132 17 -245 0z
m256 -333 c16 -5 49 -15 74 -22 193 -57 361 -227 431 -434 33 -99 34 -278 1
-381 -38 -123 -118 -246 -207 -318 -57 -47 -174 -108 -235 -124 -102 -25 -141
-32 -177 -32 -41 0 -169 23 -219 38 -162 51 -327 199 -393 355 -86 202 -68
450 47 622 37 56 188 205 208 205 3 0 18 8 32 19 25 17 94 43 182 69 44 13
217 15 256 3z" fill="#fff"/>
<path d="M4343 2056 c-245 -80 -324 -376 -148 -552 62 -62 114 -90 189 -102
181 -29 344 89 386 279 30 133 -52 288 -187 354 -69 34 -173 43 -240 21z" fill="#fff"/>
<path d="M2052 203 l3 -198 35 0 35 0 5 74 5 75 62 -3 c85 -3 103 4 103 39 l0
29 -82 3 -83 3 -3 53 -3 52 150 0 151 0 0 35 0 35 -190 0 -190 0 2 -197z" fill="#fff"/>
<path d="M2572 390 c-36 -15 -44 -54 -40 -207 3 -121 6 -145 21 -160 15 -16
40 -18 186 -20 101 -2 181 2 200 8 43 15 54 63 49 214 -4 127 -14 159 -53 169
-33 9 -338 5 -363 -4z m329 -64 c2 -2 3 -61 1 -130 l-3 -126 -145 0 -144 0 0
130 0 130 143 0 c79 0 146 -2 148 -4z" fill="#fff"/>
<path d="M3180 206 c0 -122 4 -197 10 -201 6 -4 24 -4 40 0 30 7 30 7 30 76
l0 69 48 0 c45 -1 51 -4 127 -75 77 -73 82 -75 125 -73 25 2 45 8 45 14 0 6
-31 37 -70 70 l-69 59 39 6 c62 10 78 38 73 131 -5 115 -1 112 -218 116 l-180
3 0 -195z m315 69 l0 -50 -117 -3 -118 -3 0 56 0 56 118 -3 117 -3 0 -50z" fill="#fff"/>
<path d="M4046 384 c-3 -9 -6 -93 -6 -189 0 -188 4 -204 55 -191 24 6 24 7 27
141 l3 136 94 -86 c173 -158 213 -190 234 -190 22 0 22 2 22 195 l0 195 -35 0
-35 0 -5 -131 -5 -131 -150 133 c-148 132 -185 154 -199 118z" fill="#fff"/>
<path d="M4676 384 c-12 -31 -7 -359 6 -372 13 -13 331 -18 362 -6 10 4 16 18
16 35 l0 29 -150 0 -150 0 0 53 0 52 66 -3 c94 -5 114 2 114 38 l0 30 -90 0
-90 0 0 45 0 45 144 0 c132 0 145 2 151 19 3 10 3 26 -1 35 -5 14 -29 16 -189
16 -158 0 -184 -2 -189 -16z" fill="#fff"/>
<path d="M5210 206 c0 -158 3 -195 14 -199 8 -3 92 -5 188 -4 l173 2 3 33 3
32 -151 0 -151 0 3 52 3 53 68 -3 c90 -4 107 2 107 39 l0 29 -90 0 -90 0 0 45
0 45 150 0 150 0 0 35 0 35 -190 0 -190 0 0 -194z" fill="#fff"/>
<path d="M5747 385 c-10 -25 -8 -358 2 -374 14 -22 294 -11 340 13 67 35 101
96 101 178 -1 73 -29 130 -80 164 -41 27 -48 28 -200 32 -141 4 -158 3 -163
-13z m286 -66 c67 -18 97 -103 63 -183 -19 -45 -57 -58 -172 -60 l-95 -1 0
123 c0 67 0 124 1 127 0 9 165 5 203 -6z" fill="#fff"/>
<path d="M6379 382 c-22 -18 -24 -28 -24 -97 0 -110 7 -115 180 -115 l133 0 4
-46 c2 -27 -1 -48 -7 -51 -6 -2 -65 -2 -131 -1 l-119 3 -3 28 c-3 27 -21 34
-56 21 -25 -9 -21 -76 5 -100 19 -17 38 -19 186 -19 161 0 165 1 184 24 15 18
19 39 19 95 0 63 -3 75 -23 94 -22 20 -33 22 -159 22 l-136 0 -4 41 c-2 22 -2
42 1 45 2 2 58 4 123 4 l118 0 0 -25 c0 -19 5 -25 23 -25 55 0 69 43 31 95
-13 18 -28 20 -167 23 -140 3 -155 2 -178 -16z" fill="#fff"/>
</g>
</svg>
