<?xml version="1.0" standalone="no"?>
<!DOCTYPE svg PUBLIC "-//W3C//DTD SVG 20010904//EN"
 "http://www.w3.org/TR/2001/REC-SVG-20010904/DTD/svg10.dtd">
<svg version="1.0" xmlns="http://www.w3.org/2000/svg"
 width="735.000000pt" height="276.000000pt" viewBox="0 0 735.000000 276.000000"
 preserveAspectRatio="xMidYMid meet">
<metadata>
Created by potrace 1.16, written by Peter Selinger 2001-2019
</metadata>
<g transform="translate(0.000000,276.000000) scale(0.100000,-0.100000)"
fill="#ffffff" stroke="none">
<path d="M500 2739 c-146 -37 -236 -86 -320 -171 -119 -121 -175 -262 -173
-438 1 -174 53 -298 175 -422 43 -43 84 -78 92 -78 8 0 16 -4 18 -8 5 -13 114
-62 173 -77 42 -11 119 -15 309 -15 265 0 293 -4 342 -47 40 -35 57 -72 57
-126 0 -64 -21 -107 -70 -144 l-36 -28 -531 -5 -531 -5 3 -40 c4 -56 19 -101
55 -165 32 -58 130 -160 153 -160 8 0 14 -4 14 -8 0 -5 28 -18 62 -30 60 -21
79 -22 441 -23 363 0 381 1 450 22 40 12 83 30 97 39 14 8 38 22 55 30 49 25
168 151 202 215 56 107 73 176 73 300 0 86 -5 126 -21 176 -50 156 -168 297
-299 360 -139 67 -214 79 -506 79 -223 0 -232 1 -264 23 -107 71 -99 236 13
296 36 20 56 21 291 21 281 0 331 8 426 73 111 76 199 225 200 340 l0 27 -457
-1 c-252 0 -474 -5 -493 -10z" fill="#fff"/>
<path d="M1810 2723 c0 -45 25 -127 56 -184 53 -97 139 -169 250 -208 55 -19
81 -21 306 -21 157 0 257 -4 279 -11 85 -29 133 -121 109 -209 -11 -41 -57
-100 -79 -100 -6 0 -11 -4 -11 -10 0 -7 -158 -10 -455 -10 l-456 0 3 -437 c3
-399 5 -442 22 -488 62 -166 225 -295 372 -295 l44 0 2 388 3 387 260 6 c310
7 334 12 470 103 168 112 269 297 269 496 1 113 -14 179 -62 280 -46 99 -167
222 -262 267 -150 72 -155 72 -667 73 l-453 0 0 -27z" fill="#fff"/>
<path d="M5899 2735 c-102 -28 -202 -97 -258 -178 -32 -47 -67 -141 -75 -204
l-6 -43 333 0 334 0 6 -262 c4 -145 7 -496 7 -780 l0 -518 49 0 c28 0 53 5 56
10 3 6 14 10 25 10 10 0 38 10 61 23 108 56 188 153 228 278 6 21 11 111 11
225 0 104 3 375 7 602 l6 412 147 0 c122 0 157 4 210 21 147 48 261 170 296
317 7 32 13 67 14 80 l0 22 -702 -1 c-536 -1 -714 -4 -749 -14z" fill="#fff"/>
<path d="M4290 2714 c-155 -23 -189 -34 -324 -99 -147 -72 -289 -197 -387
-342 -122 -181 -184 -421 -160 -623 22 -182 67 -311 159 -455 61 -95 253 -284
290 -285 6 0 12 -3 12 -7 0 -5 10 -13 23 -19 107 -54 137 -67 200 -87 40 -13
93 -29 120 -35 55 -14 341 -16 383 -3 16 5 55 15 87 22 32 7 60 16 63 21 3 4
12 8 20 8 25 0 144 60 224 114 94 62 202 170 631 631 31 33 79 85 108 115 28
30 51 58 51 63 0 4 -10 18 -22 31 -13 13 -66 69 -118 126 -52 57 -120 129
-150 160 -30 32 -95 101 -145 155 -99 108 -244 256 -290 295 -76 65 -270 170
-313 170 -12 0 -23 4 -26 9 -6 10 -27 14 -191 35 -127 17 -132 17 -245 0z
m256 -333 c16 -5 49 -15 74 -22 193 -57 361 -227 431 -434 33 -99 34 -278 1
-381 -38 -123 -118 -246 -207 -318 -57 -47 -174 -108 -235 -124 -102 -25 -141
-32 -177 -32 -41 0 -169 23 -219 38 -162 51 -327 199 -393 355 -86 202 -68
450 47 622 37 56 188 205 208 205 3 0 18 8 32 19 25 17 94 43 182 69 44 13
217 15 256 3z" fill="#fff"/>
<path d="M4343 2056 c-245 -80 -324 -376 -148 -552 62 -62 114 -90 189 -102
181 -29 344 89 386 279 30 133 -52 288 -187 354 -69 34 -173 43 -240 21z" fill="#fff"/>
<path d="M1540 388 c1 -7 32 -96 69 -198 67 -181 69 -185 99 -188 28 -3 31 0
50 50 63 166 74 194 80 200 4 4 27 -48 52 -115 24 -67 49 -125 54 -129 20 -14
54 -8 61 10 31 79 125 354 125 366 0 11 -10 16 -33 16 l-33 0 -44 -135 c-24
-74 -47 -135 -50 -135 -3 0 -18 37 -34 83 -68 193 -66 188 -93 185 -24 -3 -31
-16 -76 -136 -28 -73 -53 -129 -57 -125 -4 4 -26 65 -50 136 l-42 127 -39 0
c-25 0 -39 -5 -39 -12z" fill="#fff"/>
<path d="M2305 390 c-46 -18 -50 -35 -50 -191 0 -205 -13 -194 230 -194 163 0
186 2 202 18 15 15 18 40 21 172 3 154 3 155 -22 180 -25 25 -26 25 -193 24
-92 0 -177 -4 -188 -9z m325 -190 l0 -130 -144 0 -145 0 -3 120 c-2 66 -1 125
0 130 2 6 63 10 148 10 l144 0 0 -130z" fill="#fff"/>
<path d="M2900 206 l0 -194 30 -7 c16 -4 34 -4 40 0 5 3 10 37 10 76 l0 69 52
0 c51 0 53 -1 129 -76 75 -72 80 -75 120 -72 23 2 44 8 46 13 2 6 -26 35 -62
65 -36 30 -65 57 -65 61 0 3 18 9 40 13 51 8 60 26 60 123 -1 121 5 117 -215
121 l-185 3 0 -195z m320 69 l0 -55 -120 0 -120 0 0 55 0 55 120 0 120 0 0
-55z" fill="#fff"/>
<path d="M3482 203 l3 -198 178 -3 177 -2 0 35 0 35 -140 0 -140 0 0 165 0
165 -40 0 -40 0 2 -197z" fill="#fff"/>
<path d="M3974 387 c-2 -7 -3 -96 -2 -197 l3 -185 155 0 c169 1 190 6 241 62
95 102 45 289 -85 322 -64 16 -305 15 -312 -2z m296 -70 c48 -16 73 -66 66
-129 -10 -92 -40 -110 -184 -112 l-97 -1 -3 128 -3 127 93 -1 c51 0 109 -5
128 -12z" fill="#fff"/>
<path d="M4800 394 c0 -6 57 -168 109 -309 28 -77 30 -80 61 -80 32 0 32 1 78
122 26 67 50 124 53 128 4 3 15 -18 24 -47 10 -29 31 -88 47 -130 27 -72 32
-78 58 -78 32 0 32 1 124 263 48 135 48 143 -5 135 -20 -3 -30 -21 -69 -135
-25 -73 -48 -133 -51 -133 -3 0 -13 26 -23 58 -10 31 -32 92 -48 135 -28 72
-32 78 -56 75 -21 -3 -29 -13 -49 -68 -62 -168 -76 -201 -83 -193 -4 4 -26 65
-50 136 l-42 127 -39 0 c-21 0 -39 -3 -39 -6z" fill="#fff"/>
<path d="M5520 205 c0 -194 0 -195 23 -199 59 -12 57 -21 57 196 l0 198 -40 0
-40 0 0 -195z" fill="#fff"/>
<path d="M5800 205 l0 -195 26 -6 c39 -10 275 2 309 15 72 29 109 89 109 181
0 71 -15 109 -61 152 -38 37 -95 47 -250 48 l-133 0 0 -195z m311 106 c35 -17
49 -50 49 -116 0 -94 -53 -125 -216 -125 l-64 0 0 131 0 131 103 -4 c56 -3
114 -10 128 -17z" fill="#fff"/>
<path d="M6412 203 l3 -198 173 -2 c96 -1 180 1 188 4 8 3 14 18 14 34 l0 29
-150 0 -150 0 0 53 0 53 67 -3 c95 -6 113 1 113 37 l0 30 -90 0 -90 0 0 45 0
45 150 0 150 0 0 35 0 35 -190 0 -190 0 2 -197z" fill="#fff"/>
</g>
</svg>
