<?xml version="1.0" standalone="no"?>
<!DOCTYPE svg PUBLIC "-//W3C//DTD SVG 20010904//EN"
 "http://www.w3.org/TR/2001/REC-SVG-20010904/DTD/svg10.dtd">
<svg version="1.0" xmlns="http://www.w3.org/2000/svg"
 width="735.000000pt" height="276.000000pt" viewBox="0 0 735.000000 276.000000"
 preserveAspectRatio="xMidYMid meet">
<metadata>
Created by potrace 1.16, written by Peter Selinger 2001-2019
</metadata>
<g transform="translate(0.000000,276.000000) scale(0.100000,-0.100000)"
fill="#ffffff" stroke="none">
<path d="M500 2739 c-146 -37 -236 -86 -320 -171 -119 -121 -175 -262 -173
-438 1 -174 53 -298 175 -422 43 -43 84 -78 92 -78 8 0 16 -4 18 -8 5 -13 114
-62 173 -77 42 -11 119 -15 309 -15 265 0 293 -4 342 -47 40 -35 57 -72 57
-126 0 -64 -21 -107 -70 -144 l-36 -28 -531 -5 -531 -5 3 -40 c4 -56 19 -101
55 -165 32 -58 130 -160 153 -160 8 0 14 -4 14 -8 0 -5 28 -18 62 -30 60 -21
79 -22 441 -23 363 0 381 1 450 22 40 12 83 30 97 39 14 8 38 22 55 30 49 25
168 151 202 215 56 107 73 176 73 300 0 86 -5 126 -21 176 -50 156 -168 297
-299 360 -139 67 -214 79 -506 79 -223 0 -232 1 -264 23 -107 71 -99 236 13
296 36 20 56 21 291 21 281 0 331 8 426 73 111 76 199 225 200 340 l0 27 -457
-1 c-252 0 -474 -5 -493 -10z" fill="#fff"/>
<path d="M1810 2723 c0 -45 25 -127 56 -184 53 -97 139 -169 250 -208 55 -19
81 -21 306 -21 157 0 257 -4 279 -11 85 -29 133 -121 109 -209 -11 -41 -57
-100 -79 -100 -6 0 -11 -4 -11 -10 0 -7 -158 -10 -455 -10 l-456 0 3 -437 c3
-399 5 -442 22 -488 62 -166 225 -295 372 -295 l44 0 2 388 3 387 260 6 c310
7 334 12 470 103 168 112 269 297 269 496 1 113 -14 179 -62 280 -46 99 -167
222 -262 267 -150 72 -155 72 -667 73 l-453 0 0 -27z" fill="#fff"/>
<path d="M5899 2735 c-102 -28 -202 -97 -258 -178 -32 -47 -67 -141 -75 -204
l-6 -43 333 0 334 0 6 -262 c4 -145 7 -496 7 -780 l0 -518 49 0 c28 0 53 5 56
10 3 6 14 10 25 10 10 0 38 10 61 23 108 56 188 153 228 278 6 21 11 111 11
225 0 104 3 375 7 602 l6 412 147 0 c122 0 157 4 210 21 147 48 261 170 296
317 7 32 13 67 14 80 l0 22 -702 -1 c-536 -1 -714 -4 -749 -14z" fill="#fff"/>
<path d="M4290 2714 c-155 -23 -189 -34 -324 -99 -147 -72 -289 -197 -387
-342 -122 -181 -184 -421 -160 -623 22 -182 67 -311 159 -455 61 -95 253 -284
290 -285 6 0 12 -3 12 -7 0 -5 10 -13 23 -19 107 -54 137 -67 200 -87 40 -13
93 -29 120 -35 55 -14 341 -16 383 -3 16 5 55 15 87 22 32 7 60 16 63 21 3 4
12 8 20 8 25 0 144 60 224 114 94 62 202 170 631 631 31 33 79 85 108 115 28
30 51 58 51 63 0 4 -10 18 -22 31 -13 13 -66 69 -118 126 -52 57 -120 129
-150 160 -30 32 -95 101 -145 155 -99 108 -244 256 -290 295 -76 65 -270 170
-313 170 -12 0 -23 4 -26 9 -6 10 -27 14 -191 35 -127 17 -132 17 -245 0z
m256 -333 c16 -5 49 -15 74 -22 193 -57 361 -227 431 -434 33 -99 34 -278 1
-381 -38 -123 -118 -246 -207 -318 -57 -47 -174 -108 -235 -124 -102 -25 -141
-32 -177 -32 -41 0 -169 23 -219 38 -162 51 -327 199 -393 355 -86 202 -68
450 47 622 37 56 188 205 208 205 3 0 18 8 32 19 25 17 94 43 182 69 44 13
217 15 256 3z" fill="#fff"/>
<path d="M4343 2056 c-245 -80 -324 -376 -148 -552 62 -62 114 -90 189 -102
181 -29 344 89 386 279 30 133 -52 288 -187 354 -69 34 -173 43 -240 21z"/>
<path d="M2436 384 c-12 -31 -7 -359 6 -372 15 -15 51 -15 66 0 13 13 18 341
6 372 -4 10 -18 16 -39 16 -21 0 -35 -6 -39 -16z" fill="#fff"/>
<path d="M2714 387 c-2 -7 -3 -96 -2 -197 l3 -185 27 -1 c15 -1 31 2 37 5 6 4
12 61 13 138 l3 131 153 -139 c84 -77 158 -139 165 -139 32 0 37 24 37 190 0
203 -2 210 -46 210 l-33 0 -3 -136 -3 -136 -150 136 c-145 131 -188 157 -201
123z" fill="#fff"/>
<path d="M3347 393 c-4 -3 -7 -91 -7 -194 l0 -189 25 -6 c46 -11 54 -1 57 77
l3 73 62 -3 c85 -3 103 4 103 39 l0 29 -82 3 -83 3 -3 53 -3 52 150 0 151 0 0
35 0 35 -183 0 c-101 0 -187 -3 -190 -7z" fill="#fff"/>
<path d="M3862 390 c-12 -5 -27 -21 -32 -35 -11 -29 -14 -266 -4 -303 12 -44
47 -52 233 -49 222 3 215 -3 219 170 5 146 -7 203 -44 217 -32 13 -341 12
-372 0z m328 -180 c0 -66 0 -123 0 -127 0 -5 -64 -8 -142 -8 l-143 0 -3 128
-3 127 146 0 145 0 0 -120z" fill="#fff"/>
<path d="M4677 394 c-4 -4 -7 -20 -7 -36 l0 -28 85 0 85 0 0 -153 c0 -165 3
-177 52 -177 l28 0 0 165 0 164 88 3 87 3 0 30 0 30 -206 3 c-113 1 -208 -1
-212 -4z" fill="#fff"/>
<path d="M5206 384 c-3 -9 -6 -93 -6 -189 0 -136 3 -175 14 -184 14 -12 333
-15 363 -4 7 3 13 18 13 34 l0 28 -151 3 -152 3 -1 48 -1 47 70 0 c99 0 115 6
115 41 l0 29 -88 0 c-49 0 -91 2 -93 4 -3 3 -3 23 -1 45 l4 41 143 0 c136 0
143 1 148 21 13 47 7 49 -188 49 -158 0 -184 -2 -189 -16z" fill="#fff"/>
<path d="M5774 391 c-33 -14 -44 -63 -43 -190 0 -134 13 -182 49 -192 14 -4
85 -7 158 -8 182 -1 202 10 202 117 0 38 -2 42 -24 42 -13 0 -31 3 -40 6 -12
5 -15 -4 -18 -43 l-3 -48 -117 -3 -117 -3 -3 127 c-2 69 -1 128 1 130 2 2 58
4 123 4 l118 0 0 -41 0 -40 38 3 37 3 0 53 c-1 83 -8 87 -188 89 -84 1 -162
-2 -173 -6z" fill="#fff"/>
<path d="M6306 384 c-3 -9 -6 -91 -6 -184 0 -93 3 -175 6 -184 8 -20 57 -21
74 -1 7 9 11 40 9 85 l-4 71 139 0 139 0 -2 -65 c-3 -87 4 -106 38 -106 48 0
51 11 51 190 0 203 -2 210 -45 210 -29 0 -34 -4 -40 -30 -4 -16 -5 -50 -4 -75
l3 -46 -137 -2 -137 -2 0 62 c0 82 -5 93 -45 93 -21 0 -35 -6 -39 -16z" fill="#fff"/>
</g>
</svg>
