<?xml version="1.0" standalone="no"?>
<!DOCTYPE svg PUBLIC "-//W3C//DTD SVG 20010904//EN"
 "http://www.w3.org/TR/2001/REC-SVG-20010904/DTD/svg10.dtd">
<svg version="1.0" xmlns="http://www.w3.org/2000/svg"
 width="3114.000000pt" height="1070.000000pt" viewBox="0 0 3114.000000 1070.000000"
 preserveAspectRatio="xMidYMid meet">
<metadata>
Created by potrace 1.16, written by Peter Selinger 2001-2019
</metadata>
<g transform="translate(0.000000,1070.000000) scale(0.100000,-0.100000)"
fill="#ffffff" stroke="none">
<path d="M5060 10694 c-25 -2 -106 -8 -180 -14 -678 -55 -1403 -265 -2020
-587 -1463 -763 -2492 -2165 -2789 -3803 -12 -63 -21 -120 -21 -127 0 -9 14
-7 53 8 385 156 2023 438 4466 769 245 33 448 63 452 67 3 5 362 427 798 940
814 959 851 999 1016 1110 33 22 105 63 160 90 233 118 455 171 855 208 111
11 228 29 320 50 240 56 413 85 501 85 21 0 39 3 39 8 0 19 -320 253 -505 369
-718 451 -1493 719 -2340 808 -140 15 -697 28 -805 19z" fill="#fff"/>
<path d="M9055 9175 c-68 -216 -235 -464 -632 -937 -161 -193 -215 -265 -290
-390 -158 -265 -404 -719 -726 -1341 l-165 -318 146 -207 c546 -779 1054
-1613 1367 -2247 419 -849 639 -1445 647 -1754 2 -55 7 -90 13 -88 15 5 174
206 272 343 558 785 884 1660 980 2634 23 236 23 729 -1 960 -126 1256 -638
2373 -1483 3240 -103 106 -122 122 -128 105z" fill="#fff"/>
<path d="M11210 6440 l0 -210 450 0 450 0 0 -975 0 -975 210 0 210 0 0 975 0
975 450 0 450 0 0 210 0 210 -1110 0 -1110 0 0 -210z" fill="#fff"/>
<path d="M13690 5465 l0 -1185 210 0 210 0 0 976 0 975 693 -3 c679 -4 693 -4
757 -26 170 -56 256 -171 275 -369 23 -228 -75 -427 -243 -495 -57 -23 -58
-23 -624 -26 l-568 -3 0 -189 0 -190 444 0 443 0 294 -324 294 -325 305 0 305
-1 -356 358 -357 357 82 40 c65 32 99 58 171 130 103 103 148 178 191 320 27
85 28 101 29 290 0 179 -2 209 -23 285 -64 236 -201 404 -407 501 -186 87
-213 89 -1247 89 l-878 0 0 -1185z" fill="#fff"/>
<path d="M16700 5465 l0 -1185 215 0 215 0 0 1185 0 1185 -215 0 -215 0 0
-1185z" fill="#fff"/>
<path d="M17540 5465 l0 -1185 210 0 210 0 0 975 0 975 603 0 c331 0 643 -5
692 -9 193 -19 314 -102 376 -258 20 -49 23 -76 23 -178 0 -102 -3 -129 -23
-178 -44 -111 -132 -197 -246 -239 -59 -22 -71 -22 -597 -26 l-538 -3 0 -205
0 -205 563 3 562 4 97 26 c290 79 479 262 564 545 36 119 46 374 19 504 -51
254 -184 434 -399 538 -114 55 -182 75 -306 91 -52 6 -410 10 -947 10 l-863 0
0 -1185z" fill="#fff"/>
<path d="M20360 5465 l0 -1185 210 0 210 0 0 975 0 975 603 0 c331 0 643 -5
692 -9 193 -19 314 -102 376 -258 20 -49 23 -76 23 -178 0 -102 -3 -129 -23
-178 -44 -111 -132 -197 -246 -239 -59 -22 -71 -22 -597 -26 l-538 -3 0 -205
0 -205 563 3 562 4 97 26 c290 79 479 262 564 545 36 119 46 374 19 504 -51
254 -184 434 -399 538 -114 55 -182 75 -306 91 -52 6 -410 10 -947 10 l-863 0
0 -1185z" fill="#fff"/>
<path d="M23170 5465 l0 -1185 1060 0 1060 0 0 210 0 210 -850 0 -850 0 0 765
0 765 850 0 850 0 0 210 0 210 -1060 0 -1060 0 0 -1185z" fill="#fff"/>
<path d="M25630 5465 l0 -1185 210 0 210 0 0 976 0 975 693 -3 c679 -4 693 -4
757 -26 170 -56 256 -171 275 -369 23 -228 -75 -427 -243 -495 -57 -23 -58
-23 -624 -26 l-568 -3 0 -189 0 -190 444 0 443 0 294 -324 294 -325 305 0 305
-1 -356 358 -357 357 82 40 c65 32 99 58 171 130 103 103 148 178 191 320 27
85 28 101 29 290 0 179 -2 209 -23 285 -64 236 -201 404 -407 501 -186 87
-213 89 -1247 89 l-878 0 0 -1185z" fill="#fff"/>
<path d="M29172 6639 c-290 -37 -500 -214 -568 -479 -25 -97 -23 -274 5 -373
65 -238 222 -388 476 -459 78 -21 97 -22 755 -27 l675 -6 68 -33 c107 -53 149
-127 149 -258 1 -141 -72 -245 -197 -283 -66 -21 -84 -21 -991 -21 l-924 0 0
-210 0 -210 954 0 c1045 0 1034 -1 1178 59 271 114 411 385 378 735 -12 122
-31 190 -76 277 -70 134 -208 234 -385 281 -81 21 -105 22 -765 27 l-680 6
-60 30 c-187 96 -189 401 -3 496 22 11 72 24 112 29 40 5 447 10 910 10 l837
0 0 210 0 210 -892 -1 c-491 -1 -921 -5 -956 -10z" fill="#fff"/>
<path d="M23880 5480 l0 -180 660 0 660 0 0 180 0 180 -660 0 -660 0 0 -180z" fill="#fff"/>
<path d="M4 4942 c53 -734 292 -1535 653 -2182 265 -476 551 -851 944 -1235
246 -241 484 -434 766 -623 120 -81 413 -256 418 -250 2 2 8 82 14 178 22 343
62 597 162 1030 211 914 501 1735 884 2501 59 116 104 213 102 215 -7 7 -499
84 -757 118 -573 76 -1139 138 -2320 255 -443 44 -820 83 -839 85 l-34 5 7
-97z" fill="#fff"/>
<path d="M5676 4212 c-194 -311 -453 -808 -626 -1202 -370 -844 -638 -1799
-765 -2730 -8 -63 -17 -127 -20 -142 -4 -25 -1 -27 48 -38 103 -22 363 -60
531 -77 210 -21 734 -24 936 -5 189 18 455 57 627 92 823 168 1615 536 2262
1054 141 113 350 298 435 385 l50 51 -25 26 c-110 119 -837 724 -1579 1315
-848 675 -1147 904 -1380 1058 -134 88 -361 212 -438 239 -31 11 -33 10 -56
-26z" fill="#fff"/>
</g>
</svg>
